<mxfile host="65bd71144e">
    <diagram id="5DIWrdhLwUrtFaI1QlfB" name="Page-1">
        <mxGraphModel dx="1160" dy="797" grid="1" gridSize="10" guides="1" tooltips="1" connect="1" arrows="1" fold="1" page="1" pageScale="1" pageWidth="850" pageHeight="1100" math="0" shadow="0">
            <root>
                <mxCell id="0"/>
                <mxCell id="1" parent="0"/>
                <mxCell id="3" value="" style="whiteSpace=wrap;html=1;fillColor=#ACBAD5;strokeColor=#000000;gradientColor=none;strokeWidth=2;perimeterSpacing=2;rounded=0;arcSize=1;" parent="1" vertex="1">
                    <mxGeometry x="240" y="360" width="400" height="280" as="geometry"/>
                </mxCell>
                <mxCell id="5" value="" style="whiteSpace=wrap;html=1;fillColor=#ACBAD5;strokeColor=#000000;gradientColor=none;strokeWidth=2;perimeterSpacing=2;rounded=0;arcSize=1;" parent="1" vertex="1">
                    <mxGeometry x="230" y="380" width="390" height="280" as="geometry"/>
                </mxCell>
                <mxCell id="6" value="" style="whiteSpace=wrap;html=1;fillColor=#EECEB8;strokeColor=#000000;strokeWidth=2;perimeterSpacing=2;rounded=0;arcSize=1;" parent="1" vertex="1">
                    <mxGeometry x="240" y="240" width="190" height="80" as="geometry"/>
                </mxCell>
                <mxCell id="7" value="" style="whiteSpace=wrap;html=1;fillColor=#EECEB8;strokeColor=#000000;strokeWidth=2;perimeterSpacing=2;rounded=0;arcSize=1;" parent="1" vertex="1">
                    <mxGeometry x="450" y="240" width="190" height="80" as="geometry"/>
                </mxCell>
                <mxCell id="22" value="" style="shape=table;startSize=0;container=1;collapsible=0;childLayout=tableLayout;" parent="1" vertex="1">
                    <mxGeometry x="480" y="250" width="130" height="60" as="geometry"/>
                </mxCell>
                <mxCell id="23" value="" style="shape=tableRow;horizontal=0;startSize=0;swimlaneHead=0;swimlaneBody=0;top=0;left=0;bottom=0;right=0;collapsible=0;dropTarget=0;fillColor=none;points=[[0,0.5],[1,0.5]];portConstraint=eastwest;" parent="22" vertex="1">
                    <mxGeometry width="130" height="12" as="geometry"/>
                </mxCell>
                <mxCell id="24" value="" style="shape=partialRectangle;html=1;whiteSpace=wrap;connectable=0;overflow=hidden;fillColor=none;top=0;left=0;bottom=0;right=0;pointerEvents=1;" parent="23" vertex="1">
                    <mxGeometry width="130" height="12" as="geometry">
                        <mxRectangle width="130" height="12" as="alternateBounds"/>
                    </mxGeometry>
                </mxCell>
                <mxCell id="25" value="" style="shape=tableRow;horizontal=0;startSize=0;swimlaneHead=0;swimlaneBody=0;top=0;left=0;bottom=0;right=0;collapsible=0;dropTarget=0;fillColor=none;points=[[0,0.5],[1,0.5]];portConstraint=eastwest;" parent="22" vertex="1">
                    <mxGeometry y="12" width="130" height="12" as="geometry"/>
                </mxCell>
                <mxCell id="26" value="" style="shape=partialRectangle;html=1;whiteSpace=wrap;connectable=0;overflow=hidden;fillColor=none;top=0;left=0;bottom=0;right=0;pointerEvents=1;" parent="25" vertex="1">
                    <mxGeometry width="130" height="12" as="geometry">
                        <mxRectangle width="130" height="12" as="alternateBounds"/>
                    </mxGeometry>
                </mxCell>
                <mxCell id="27" value="" style="shape=tableRow;horizontal=0;startSize=0;swimlaneHead=0;swimlaneBody=0;top=0;left=0;bottom=0;right=0;collapsible=0;dropTarget=0;fillColor=none;points=[[0,0.5],[1,0.5]];portConstraint=eastwest;" parent="22" vertex="1">
                    <mxGeometry y="24" width="130" height="12" as="geometry"/>
                </mxCell>
                <mxCell id="28" value="" style="shape=partialRectangle;html=1;whiteSpace=wrap;connectable=0;overflow=hidden;fillColor=none;top=0;left=0;bottom=0;right=0;pointerEvents=1;" parent="27" vertex="1">
                    <mxGeometry width="130" height="12" as="geometry">
                        <mxRectangle width="130" height="12" as="alternateBounds"/>
                    </mxGeometry>
                </mxCell>
                <mxCell id="29" value="" style="shape=tableRow;horizontal=0;startSize=0;swimlaneHead=0;swimlaneBody=0;top=0;left=0;bottom=0;right=0;collapsible=0;dropTarget=0;fillColor=none;points=[[0,0.5],[1,0.5]];portConstraint=eastwest;" parent="22" vertex="1">
                    <mxGeometry y="36" width="130" height="12" as="geometry"/>
                </mxCell>
                <mxCell id="30" value="" style="shape=partialRectangle;html=1;whiteSpace=wrap;connectable=0;overflow=hidden;fillColor=none;top=0;left=0;bottom=0;right=0;pointerEvents=1;" parent="29" vertex="1">
                    <mxGeometry width="130" height="12" as="geometry">
                        <mxRectangle width="130" height="12" as="alternateBounds"/>
                    </mxGeometry>
                </mxCell>
                <mxCell id="31" value="" style="shape=tableRow;horizontal=0;startSize=0;swimlaneHead=0;swimlaneBody=0;top=0;left=0;bottom=0;right=0;collapsible=0;dropTarget=0;fillColor=none;points=[[0,0.5],[1,0.5]];portConstraint=eastwest;" parent="22" vertex="1">
                    <mxGeometry y="48" width="130" height="12" as="geometry"/>
                </mxCell>
                <mxCell id="32" value="" style="shape=partialRectangle;html=1;whiteSpace=wrap;connectable=0;overflow=hidden;fillColor=none;top=0;left=0;bottom=0;right=0;pointerEvents=1;" parent="31" vertex="1">
                    <mxGeometry width="130" height="12" as="geometry">
                        <mxRectangle width="130" height="12" as="alternateBounds"/>
                    </mxGeometry>
                </mxCell>
                <mxCell id="44" value="&lt;font style=&quot;font-size: 14px;&quot;&gt;&lt;b&gt;LDPC Matrix Memory&lt;/b&gt;&lt;/font&gt;" style="text;strokeColor=none;fillColor=none;html=1;align=center;verticalAlign=middle;whiteSpace=wrap;rounded=0;" parent="1" vertex="1">
                    <mxGeometry x="240" y="210" width="150" height="30" as="geometry"/>
                </mxCell>
                <mxCell id="45" value="&lt;div style=&quot;&quot;&gt;&lt;b style=&quot;font-size: 14px; background-color: initial;&quot;&gt;Received Codeword Buffer (RCB)&lt;/b&gt;&lt;/div&gt;" style="text;strokeColor=none;fillColor=none;html=1;align=left;verticalAlign=middle;whiteSpace=wrap;rounded=0;" parent="1" vertex="1">
                    <mxGeometry x="450" y="210" width="240" height="30" as="geometry"/>
                </mxCell>
                <mxCell id="46" value="&lt;font style=&quot;font-size: 14px;&quot;&gt;&lt;b&gt;Processing Pool&lt;/b&gt;&lt;/font&gt;" style="text;strokeColor=none;fillColor=none;html=1;align=center;verticalAlign=middle;whiteSpace=wrap;rounded=0;" parent="1" vertex="1">
                    <mxGeometry x="540" y="330" width="150" height="30" as="geometry"/>
                </mxCell>
                <mxCell id="47" value="" style="whiteSpace=wrap;html=1;fillColor=#ACBAD5;strokeColor=#000000;gradientColor=none;strokeWidth=2;perimeterSpacing=2;rounded=0;arcSize=1;" parent="1" vertex="1">
                    <mxGeometry x="680" y="240" width="60" height="420" as="geometry"/>
                </mxCell>
                <mxCell id="48" value="" style="whiteSpace=wrap;html=1;fillColor=#ACBAD5;strokeColor=#000000;gradientColor=none;strokeWidth=2;perimeterSpacing=2;rounded=0;arcSize=1;" parent="1" vertex="1">
                    <mxGeometry x="230" y="700" width="410" height="60" as="geometry"/>
                </mxCell>
                <mxCell id="49" value="&lt;font size=&quot;1&quot; style=&quot;&quot;&gt;&lt;b style=&quot;font-size: 19px;&quot;&gt;Output Buffer&lt;/b&gt;&lt;/font&gt;" style="text;strokeColor=none;fillColor=none;html=1;align=center;verticalAlign=middle;whiteSpace=wrap;rounded=0;" parent="1" vertex="1">
                    <mxGeometry x="360" y="715" width="150" height="30" as="geometry"/>
                </mxCell>
                <mxCell id="50" value="&lt;font size=&quot;1&quot; style=&quot;&quot;&gt;&lt;b style=&quot;font-size: 19px;&quot;&gt;Control Unit&lt;/b&gt;&lt;/font&gt;" style="text;strokeColor=none;fillColor=none;html=1;align=center;verticalAlign=middle;whiteSpace=wrap;rounded=0;rotation=-90;" parent="1" vertex="1">
                    <mxGeometry x="635" y="435" width="150" height="30" as="geometry"/>
                </mxCell>
                <mxCell id="52" value="" style="orthogonalLoop=1;jettySize=auto;html=1;rounded=1;strokeWidth=2;fontSize=19;endArrow=block;endFill=1;sourcePerimeterSpacing=8;targetPerimeterSpacing=8;fillColor=#000000;startArrow=block;startFill=1;entryX=0.031;entryY=0.785;entryDx=0;entryDy=0;entryPerimeter=0;" parent="1" edge="1">
                    <mxGeometry width="140" relative="1" as="geometry">
                        <mxPoint x="640.0200000000002" y="440.15999999999997" as="sourcePoint"/>
                        <mxPoint x="680.0040000000001" y="439.9999999999999" as="targetPoint"/>
                    </mxGeometry>
                </mxCell>
                <mxCell id="53" value="" style="orthogonalLoop=1;jettySize=auto;html=1;rounded=1;strokeWidth=2;fontSize=19;endArrow=block;endFill=1;sourcePerimeterSpacing=8;targetPerimeterSpacing=8;fillColor=#000000;startArrow=block;startFill=1;entryX=0.031;entryY=0.785;entryDx=0;entryDy=0;entryPerimeter=0;" parent="1" edge="1">
                    <mxGeometry width="140" relative="1" as="geometry">
                        <mxPoint x="640.0200000000002" y="560.16" as="sourcePoint"/>
                        <mxPoint x="680.0040000000001" y="559.9999999999999" as="targetPoint"/>
                    </mxGeometry>
                </mxCell>
                <mxCell id="54" value="" style="orthogonalLoop=1;jettySize=auto;html=1;rounded=1;strokeWidth=2;fontSize=19;endArrow=block;endFill=1;sourcePerimeterSpacing=8;targetPerimeterSpacing=8;fillColor=#000000;startArrow=block;startFill=1;entryX=0.031;entryY=0.785;entryDx=0;entryDy=0;entryPerimeter=0;" parent="1" edge="1">
                    <mxGeometry width="140" relative="1" as="geometry">
                        <mxPoint x="640.0000000000002" y="279.79" as="sourcePoint"/>
                        <mxPoint x="679.9840000000002" y="279.62999999999994" as="targetPoint"/>
                    </mxGeometry>
                </mxCell>
                <mxCell id="55" value="" style="edgeStyle=none;html=1;strokeWidth=6;strokeColor=#000000;fillColor=#000000;endWidth=17;endArrow=block;endFill=1;" parent="1" edge="1">
                    <mxGeometry relative="1" as="geometry">
                        <mxPoint x="334.92" y="360" as="targetPoint"/>
                        <mxPoint x="334.92" y="320" as="sourcePoint"/>
                    </mxGeometry>
                </mxCell>
                <mxCell id="56" value="" style="edgeStyle=none;html=1;strokeWidth=6;strokeColor=#000000;fillColor=#000000;endWidth=17;endArrow=block;endFill=1;" parent="1" edge="1">
                    <mxGeometry relative="1" as="geometry">
                        <mxPoint x="544.7000000000002" y="359.9999999999999" as="targetPoint"/>
                        <mxPoint x="544.7000000000002" y="319.9999999999999" as="sourcePoint"/>
                    </mxGeometry>
                </mxCell>
                <mxCell id="57" value="" style="edgeStyle=none;html=1;strokeWidth=6;strokeColor=#000000;fillColor=#000000;endWidth=17;endArrow=block;endFill=1;" parent="1" edge="1">
                    <mxGeometry relative="1" as="geometry">
                        <mxPoint x="360.00000000000006" y="699.9999999999999" as="targetPoint"/>
                        <mxPoint x="360.00000000000006" y="659.9999999999999" as="sourcePoint"/>
                    </mxGeometry>
                </mxCell>
                <mxCell id="58" value="" style="edgeStyle=none;html=1;strokeWidth=6;strokeColor=#000000;fillColor=#000000;endWidth=17;endArrow=block;endFill=1;" parent="1" edge="1">
                    <mxGeometry relative="1" as="geometry">
                        <mxPoint x="480.00000000000006" y="699.9999999999999" as="targetPoint"/>
                        <mxPoint x="480.00000000000006" y="659.9999999999999" as="sourcePoint"/>
                    </mxGeometry>
                </mxCell>
                <mxCell id="59" value="" style="shape=table;startSize=0;container=1;collapsible=0;childLayout=tableLayout;fontSize=19;" parent="1" vertex="1">
                    <mxGeometry x="270" y="250" width="130" height="60" as="geometry"/>
                </mxCell>
                <mxCell id="60" value="" style="shape=tableRow;horizontal=0;startSize=0;swimlaneHead=0;swimlaneBody=0;top=0;left=0;bottom=0;right=0;collapsible=0;dropTarget=0;fillColor=none;points=[[0,0.5],[1,0.5]];portConstraint=eastwest;fontSize=19;" parent="59" vertex="1">
                    <mxGeometry width="130" height="12" as="geometry"/>
                </mxCell>
                <mxCell id="61" value="" style="shape=partialRectangle;html=1;whiteSpace=wrap;connectable=0;overflow=hidden;fillColor=none;top=0;left=0;bottom=0;right=0;pointerEvents=1;fontSize=19;" parent="60" vertex="1">
                    <mxGeometry width="65" height="12" as="geometry">
                        <mxRectangle width="65" height="12" as="alternateBounds"/>
                    </mxGeometry>
                </mxCell>
                <mxCell id="62" value="" style="shape=partialRectangle;html=1;whiteSpace=wrap;connectable=0;overflow=hidden;fillColor=none;top=0;left=0;bottom=0;right=0;pointerEvents=1;fontSize=19;" parent="60" vertex="1">
                    <mxGeometry x="65" width="65" height="12" as="geometry">
                        <mxRectangle width="65" height="12" as="alternateBounds"/>
                    </mxGeometry>
                </mxCell>
                <mxCell id="63" value="" style="shape=tableRow;horizontal=0;startSize=0;swimlaneHead=0;swimlaneBody=0;top=0;left=0;bottom=0;right=0;collapsible=0;dropTarget=0;fillColor=none;points=[[0,0.5],[1,0.5]];portConstraint=eastwest;fontSize=19;" parent="59" vertex="1">
                    <mxGeometry y="12" width="130" height="12" as="geometry"/>
                </mxCell>
                <mxCell id="64" value="" style="shape=partialRectangle;html=1;whiteSpace=wrap;connectable=0;overflow=hidden;fillColor=none;top=0;left=0;bottom=0;right=0;pointerEvents=1;fontSize=19;" parent="63" vertex="1">
                    <mxGeometry width="65" height="12" as="geometry">
                        <mxRectangle width="65" height="12" as="alternateBounds"/>
                    </mxGeometry>
                </mxCell>
                <mxCell id="65" value="" style="shape=partialRectangle;html=1;whiteSpace=wrap;connectable=0;overflow=hidden;fillColor=none;top=0;left=0;bottom=0;right=0;pointerEvents=1;fontSize=19;" parent="63" vertex="1">
                    <mxGeometry x="65" width="65" height="12" as="geometry">
                        <mxRectangle width="65" height="12" as="alternateBounds"/>
                    </mxGeometry>
                </mxCell>
                <mxCell id="66" value="" style="shape=tableRow;horizontal=0;startSize=0;swimlaneHead=0;swimlaneBody=0;top=0;left=0;bottom=0;right=0;collapsible=0;dropTarget=0;fillColor=none;points=[[0,0.5],[1,0.5]];portConstraint=eastwest;fontSize=19;" parent="59" vertex="1">
                    <mxGeometry y="24" width="130" height="12" as="geometry"/>
                </mxCell>
                <mxCell id="67" value="" style="shape=partialRectangle;html=1;whiteSpace=wrap;connectable=0;overflow=hidden;fillColor=none;top=0;left=0;bottom=0;right=0;pointerEvents=1;fontSize=19;" parent="66" vertex="1">
                    <mxGeometry width="65" height="12" as="geometry">
                        <mxRectangle width="65" height="12" as="alternateBounds"/>
                    </mxGeometry>
                </mxCell>
                <mxCell id="68" value="" style="shape=partialRectangle;html=1;whiteSpace=wrap;connectable=0;overflow=hidden;fillColor=none;top=0;left=0;bottom=0;right=0;pointerEvents=1;fontSize=19;" parent="66" vertex="1">
                    <mxGeometry x="65" width="65" height="12" as="geometry">
                        <mxRectangle width="65" height="12" as="alternateBounds"/>
                    </mxGeometry>
                </mxCell>
                <mxCell id="69" value="" style="shape=tableRow;horizontal=0;startSize=0;swimlaneHead=0;swimlaneBody=0;top=0;left=0;bottom=0;right=0;collapsible=0;dropTarget=0;fillColor=none;points=[[0,0.5],[1,0.5]];portConstraint=eastwest;fontSize=19;" parent="59" vertex="1">
                    <mxGeometry y="36" width="130" height="12" as="geometry"/>
                </mxCell>
                <mxCell id="70" value="" style="shape=partialRectangle;html=1;whiteSpace=wrap;connectable=0;overflow=hidden;fillColor=none;top=0;left=0;bottom=0;right=0;pointerEvents=1;fontSize=19;" parent="69" vertex="1">
                    <mxGeometry width="65" height="12" as="geometry">
                        <mxRectangle width="65" height="12" as="alternateBounds"/>
                    </mxGeometry>
                </mxCell>
                <mxCell id="71" value="" style="shape=partialRectangle;html=1;whiteSpace=wrap;connectable=0;overflow=hidden;fillColor=none;top=0;left=0;bottom=0;right=0;pointerEvents=1;fontSize=19;" parent="69" vertex="1">
                    <mxGeometry x="65" width="65" height="12" as="geometry">
                        <mxRectangle width="65" height="12" as="alternateBounds"/>
                    </mxGeometry>
                </mxCell>
                <mxCell id="72" value="" style="shape=tableRow;horizontal=0;startSize=0;swimlaneHead=0;swimlaneBody=0;top=0;left=0;bottom=0;right=0;collapsible=0;dropTarget=0;fillColor=none;points=[[0,0.5],[1,0.5]];portConstraint=eastwest;fontSize=19;" parent="59" vertex="1">
                    <mxGeometry y="48" width="130" height="12" as="geometry"/>
                </mxCell>
                <mxCell id="73" value="" style="shape=partialRectangle;html=1;whiteSpace=wrap;connectable=0;overflow=hidden;fillColor=none;top=0;left=0;bottom=0;right=0;pointerEvents=1;fontSize=19;" parent="72" vertex="1">
                    <mxGeometry width="65" height="12" as="geometry">
                        <mxRectangle width="65" height="12" as="alternateBounds"/>
                    </mxGeometry>
                </mxCell>
                <mxCell id="74" value="" style="shape=partialRectangle;html=1;whiteSpace=wrap;connectable=0;overflow=hidden;fillColor=none;top=0;left=0;bottom=0;right=0;pointerEvents=1;fontSize=19;" parent="72" vertex="1">
                    <mxGeometry x="65" width="65" height="12" as="geometry">
                        <mxRectangle width="65" height="12" as="alternateBounds"/>
                    </mxGeometry>
                </mxCell>
                <mxCell id="76" value="" style="rounded=0;whiteSpace=wrap;html=1;fontSize=19;strokeWidth=2;" parent="1" vertex="1">
                    <mxGeometry x="250" y="520" width="360" height="100" as="geometry"/>
                </mxCell>
                <mxCell id="77" value="" style="rounded=0;whiteSpace=wrap;html=1;fontSize=19;strokeWidth=2;" parent="1" vertex="1">
                    <mxGeometry x="240" y="530" width="360" height="100" as="geometry"/>
                </mxCell>
                <mxCell id="80" value="&lt;b&gt;FDU&lt;/b&gt;" style="rounded=0;whiteSpace=wrap;html=1;fontSize=19;strokeWidth=2;" parent="1" vertex="1">
                    <mxGeometry x="250" y="400" width="130" height="60" as="geometry"/>
                </mxCell>
                <mxCell id="81" value="&lt;b&gt;BFU&lt;/b&gt;" style="rounded=0;whiteSpace=wrap;html=1;fontSize=19;strokeWidth=2;" parent="1" vertex="1">
                    <mxGeometry x="460" y="400" width="130" height="60" as="geometry"/>
                </mxCell>
                <mxCell id="82" value="&lt;b&gt;Objective Function&lt;/b&gt;" style="rounded=0;whiteSpace=wrap;html=1;fontSize=19;strokeWidth=2;fillColor=#dae8fc;strokeColor=#000000;" parent="1" vertex="1">
                    <mxGeometry x="480" y="490" width="90" height="120" as="geometry"/>
                </mxCell>
                <mxCell id="83" value="&lt;b&gt;&lt;font style=&quot;font-size: 17px;&quot;&gt;Parity Check&lt;/font&gt;&lt;/b&gt;" style="rounded=0;whiteSpace=wrap;html=1;fontSize=19;strokeWidth=2;fillColor=#e1d5e7;strokeColor=#000000;gradientDirection=radial;" parent="1" vertex="1">
                    <mxGeometry x="300" y="540" width="70" height="70" as="geometry"/>
                </mxCell>
                <mxCell id="86" value="&lt;b&gt;&lt;font style=&quot;font-size: 17px;&quot;&gt;Mode 0,1&lt;/font&gt;&lt;/b&gt;" style="rounded=0;whiteSpace=wrap;html=1;fontSize=19;strokeWidth=2;" parent="1" vertex="1">
                    <mxGeometry x="685" y="580" width="50" height="70" as="geometry"/>
                </mxCell>
                <mxCell id="87" value="" style="edgeStyle=none;orthogonalLoop=1;jettySize=auto;html=1;rounded=0;strokeWidth=2;fontSize=17;fontColor=#000000;startArrow=none;startFill=0;endArrow=block;endFill=1;sourcePerimeterSpacing=8;targetPerimeterSpacing=8;fillColor=#000000;" parent="1" edge="1">
                    <mxGeometry width="140" relative="1" as="geometry">
                        <mxPoint x="250" y="590" as="sourcePoint"/>
                        <mxPoint x="300" y="590" as="targetPoint"/>
                        <Array as="points"/>
                    </mxGeometry>
                </mxCell>
                <mxCell id="88" value="" style="edgeStyle=none;orthogonalLoop=1;jettySize=auto;html=1;rounded=0;strokeWidth=2;fontSize=17;fontColor=#000000;startArrow=none;startFill=0;endArrow=block;endFill=1;sourcePerimeterSpacing=8;targetPerimeterSpacing=8;fillColor=#000000;" parent="1" edge="1">
                    <mxGeometry width="140" relative="1" as="geometry">
                        <mxPoint x="250" y="560" as="sourcePoint"/>
                        <mxPoint x="300" y="560" as="targetPoint"/>
                        <Array as="points"/>
                    </mxGeometry>
                </mxCell>
                <mxCell id="89" value="&lt;b style=&quot;&quot;&gt;&lt;font style=&quot;font-size: 16px;&quot;&gt;&lt;i&gt;c&lt;/i&gt;&lt;/font&gt;&lt;/b&gt;" style="text;strokeColor=none;fillColor=none;html=1;align=center;verticalAlign=middle;whiteSpace=wrap;rounded=0;strokeWidth=2;fontSize=17;fontColor=#000000;" parent="1" vertex="1">
                    <mxGeometry x="224" y="565" width="60" height="30" as="geometry"/>
                </mxCell>
                <mxCell id="90" value="&lt;b style=&quot;&quot;&gt;&lt;font style=&quot;font-size: 16px;&quot;&gt;H&lt;/font&gt;&lt;/b&gt;" style="text;strokeColor=none;fillColor=none;html=1;align=center;verticalAlign=middle;whiteSpace=wrap;rounded=0;strokeWidth=2;fontSize=17;fontColor=#000000;" parent="1" vertex="1">
                    <mxGeometry x="224" y="535" width="60" height="30" as="geometry"/>
                </mxCell>
                <mxCell id="91" value="" style="edgeStyle=none;orthogonalLoop=1;jettySize=auto;html=1;rounded=0;strokeWidth=2;fontSize=16;fontColor=#000000;startArrow=none;startFill=0;endArrow=block;endFill=1;sourcePerimeterSpacing=8;targetPerimeterSpacing=8;fillColor=#000000;exitX=0.5;exitY=1;exitDx=0;exitDy=0;strokeColor=#FF0000;" parent="1" source="83" edge="1">
                    <mxGeometry width="140" relative="1" as="geometry">
                        <mxPoint x="510" y="620" as="sourcePoint"/>
                        <mxPoint x="335" y="650" as="targetPoint"/>
                        <Array as="points"/>
                    </mxGeometry>
                </mxCell>
                <mxCell id="92" value="" style="edgeStyle=none;orthogonalLoop=1;jettySize=auto;html=1;rounded=0;strokeColor=#000000;strokeWidth=2;fontSize=16;fontColor=#000000;startArrow=none;startFill=0;endArrow=block;endFill=1;sourcePerimeterSpacing=8;targetPerimeterSpacing=8;fillColor=#000000;exitX=1;exitY=0.5;exitDx=0;exitDy=0;entryX=0.006;entryY=0.706;entryDx=0;entryDy=0;entryPerimeter=0;" parent="1" source="83" target="82" edge="1">
                    <mxGeometry width="140" relative="1" as="geometry">
                        <mxPoint x="510" y="740" as="sourcePoint"/>
                        <mxPoint x="420" y="575" as="targetPoint"/>
                        <Array as="points"/>
                    </mxGeometry>
                </mxCell>
                <mxCell id="93" value="" style="edgeStyle=none;orthogonalLoop=1;jettySize=auto;html=1;rounded=0;strokeColor=#000000;strokeWidth=2;fontSize=16;fontColor=#000000;startArrow=none;startFill=0;endArrow=block;endFill=1;sourcePerimeterSpacing=8;targetPerimeterSpacing=8;fillColor=#000000;exitX=-0.001;exitY=0.125;exitDx=0;exitDy=0;entryX=0.5;entryY=1;entryDx=0;entryDy=0;exitPerimeter=0;" parent="1" source="82" target="80" edge="1">
                    <mxGeometry width="140" relative="1" as="geometry">
                        <mxPoint x="410" y="610" as="sourcePoint"/>
                        <mxPoint x="550" y="610" as="targetPoint"/>
                        <Array as="points">
                            <mxPoint x="315" y="505"/>
                        </Array>
                    </mxGeometry>
                </mxCell>
                <mxCell id="94" value="" style="edgeStyle=none;orthogonalLoop=1;jettySize=auto;html=1;rounded=0;strokeColor=#000000;strokeWidth=2;fontSize=16;fontColor=#000000;startArrow=none;startFill=0;endArrow=block;endFill=1;sourcePerimeterSpacing=8;targetPerimeterSpacing=8;fillColor=#000000;exitX=1;exitY=0.5;exitDx=0;exitDy=0;entryX=0;entryY=0.5;entryDx=0;entryDy=0;" parent="1" source="80" target="81" edge="1">
                    <mxGeometry width="140" relative="1" as="geometry">
                        <mxPoint x="410" y="600" as="sourcePoint"/>
                        <mxPoint x="550" y="600" as="targetPoint"/>
                        <Array as="points"/>
                    </mxGeometry>
                </mxCell>
                <mxCell id="95" value="&lt;font style=&quot;font-size: 16px;&quot;&gt;&lt;b style=&quot;&quot;&gt;Treshold&amp;nbsp;&lt;span style=&quot;caret-color: rgb(32, 33, 36); color: rgb(32, 33, 36); font-family: &amp;quot;Google Sans&amp;quot;, arial, sans-serif; text-align: left;&quot;&gt;θ&lt;/span&gt;&lt;/b&gt;&lt;/font&gt;" style="rounded=0;whiteSpace=wrap;html=1;strokeColor=#000000;strokeWidth=2;fontSize=16;fillColor=#f5f5f5;gradientDirection=radial;fontColor=#333333;rotation=90;" parent="1" vertex="1">
                    <mxGeometry x="377.88" y="565" width="84.25" height="27.13" as="geometry"/>
                </mxCell>
            </root>
        </mxGraphModel>
    </diagram>
</mxfile>